<svg id="Layer_1" data-name="Layer 1" xmlns="http://www.w3.org/2000/svg" viewBox="0 0 231.4561 30.59531"><defs><style>.cls-1{fill:#191919;}.cls-1,.cls-2{fill-rule:evenodd;}.cls-2{fill:#e50000;}</style></defs><title>dadekavan-logo-eslah shode96</title><path class="cls-1" d="M87.2036,10.9736a4.18449,4.18449,0,0,0-3.2559,1.3317,6.062,6.062,0,0,0-1.4329,3.6783H91.385a5.6364,5.6364,0,0,0-1.0834-3.7208,3.81874,3.81874,0,0,0-3.098-1.2892M65.444,24.2596a4.68829,4.68829,0,0,0,3.8214-1.4326,7.25433,7.25433,0,0,0,1.1843-4.6242V17.6639q0-3.60735-1.2002-5.1474a4.56445,4.56445,0,0,0-3.8372-1.5429,3.9409,3.9409,0,0,0-3.4631,1.7598,8.735,8.735,0,0,0-1.1999,4.9626,8.3431,8.3431,0,0,0,1.1945,4.9042A4.039,4.039,0,0,0,65.444,24.2596Zm5.1432-.4334H70.4497a6.04226,6.04226,0,0,1-5.3291,2.5894,6.31992,6.31992,0,0,1-5.1854-2.2776,10.03646,10.03646,0,0,1-1.8505-6.4741,10.16822,10.16822,0,0,1,1.8613-6.5216A6.25764,6.25764,0,0,1,65.1206,8.817a6.17448,6.17448,0,0,1,5.2971,2.5104h0.201l-0.1058-1.226L70.4497,8.9123V2h2.5691V26.0984H70.9305Zm-26.835.4646a5.2061,5.2061,0,0,0,3.7698-1.3159,4.86473,4.86473,0,0,0,1.3745-3.6836V17.7592l-2.5753.1111a9.27155,9.27155,0,0,0-4.4189.951,2.86479,2.86479,0,0,0-1.3533,2.6212,2.62523,2.62523,0,0,0,.8462,2.1189A3.4841,3.4841,0,0,0,43.7522,24.2908Zm5.8104,1.8076L49.0501,23.683H48.9229a7.22138,7.22138,0,0,1-2.5271,2.1674,7.7691,7.7691,0,0,1-3.1504.5652,5.678,5.678,0,0,1-3.9598-1.2999,4.77483,4.77483,0,0,1-1.4323-3.7103q0-5.1441,8.2196-5.3904l2.882-.0952V14.8681a4.30713,4.30713,0,0,0-.8569-2.9438,3.54432,3.54432,0,0,0-2.7488-.9507,11.1938,11.1938,0,0,0-4.8002,1.3l-0.788-1.9664a12.1408,12.1408,0,0,1,2.7439-1.0729,11.90922,11.90922,0,0,1,2.9971-.3855,6.46527,6.46527,0,0,1,4.4986,1.3478,5.60669,5.60669,0,0,1,1.4649,4.3172V26.0984H49.5626ZM29.4094,14.6569q0-4.4313-2.2206-6.6696-2.22045-2.243-6.6025-2.2459H16.7587v18.074H19.963q4.7094,0,7.0778-2.3148Q29.41215,19.18625,29.4094,14.6569Zm2.7908-.0955q0,5.6049-3.0445,8.572-3.0447,2.96535-8.7601,2.965H14.1267V3.4584H21.062q5.28135,0,8.2094,2.9273Q32.1985,9.3116,32.2002,14.5614ZM87.9009,26.4156a7.78755,7.78755,0,0,1-5.9357-2.2938,8.86356,8.86356,0,0,1-2.1779-6.3683,9.83977,9.83977,0,0,1,2.0194-6.5214A6.70965,6.70965,0,0,1,87.2354,8.817a6.39217,6.39217,0,0,1,5.0482,2.0982,8.05114,8.05114,0,0,1,1.8612,5.5335v1.6274H82.4516a6.761,6.761,0,0,0,1.5069,4.5397,5.234,5.234,0,0,0,4.0377,1.5483,13.63648,13.63648,0,0,0,5.4187-1.1467v2.2938a13.72873,13.72873,0,0,1-2.5795.8507A14.57926,14.57926,0,0,1,87.9009,26.4156Z"/><path class="cls-2" d="M133.46651,18.0764l-1.82391.0632a5.816,5.816,0,0,0-3.071.7452,2.33445,2.33445,0,0,0-1.0052,2.077q0,1.99755,2.2944,1.9973a3.62755,3.62755,0,0,0,2.6223-.9457,3.32375,3.32375,0,0,0,.98341-2.5106V18.0764Zm1.39569,8.022-0.915-2.3513h-0.1216a6.99011,6.99011,0,0,1-2.45821,2.0869,7.92782,7.92782,0,0,1-3.2879.5816,5.31888,5.31888,0,0,1-3.9277-1.4269,5.47026,5.47026,0,0,1-1.4326-4.059,4.57742,4.57742,0,0,1,1.9298-4.0694,11.1451,11.1451,0,0,1,5.8147-1.4476l3.00281-.0953V14.5566q0-2.63235-2.69641-2.6323a12.2806,12.2806,0,0,0-4.8733,1.253l-1.565-3.1814a14.09694,14.09694,0,0,1,6.6288-1.5593,8.26316,8.26316,0,0,1,5.3391,1.5165,5.59353,5.59353,0,0,1,1.8609,4.6143v11.531h-3.2984Zm14.54941,0L142.8092,8.7855h4.9422l3.3468,9.8669a17.87355,17.87355,0,0,1,.6976,3.5458h0.0896a15.5047,15.5047,0,0,1,.69759-3.5458l3.33611-9.8669h4.93741L154.2589,26.0984h-4.84729Zm25.7831-8.022-1.82381.0632a5.81522,5.81522,0,0,0-3.0708.7452,2.33393,2.33393,0,0,0-1.0054,2.077q0,1.99755,2.2946,1.9973a3.62706,3.62706,0,0,0,2.6221-.9457,3.323,3.323,0,0,0,.98331-2.5106V18.0764Zm1.3958,8.022-0.915-2.3513h-0.12161a6.98777,6.98777,0,0,1-2.458,2.0869,7.92782,7.92782,0,0,1-3.2879.5816,5.31877,5.31877,0,0,1-3.9277-1.4269,5.47069,5.47069,0,0,1-1.4326-4.059,4.57776,4.57776,0,0,1,1.92961-4.0694,11.14576,11.14576,0,0,1,5.815-1.4476l3.0024-.0953V14.5566q0-2.63235-2.696-2.6323a12.28174,12.28174,0,0,0-4.8736,1.253l-1.565-3.1814a14.097,14.097,0,0,1,6.62909-1.5593,8.26288,8.26288,0,0,1,5.339,1.5165,5.594,5.594,0,0,1,1.8607,4.6143v11.531h-3.2984Zm26.4005,0h-4.7262V15.9887a4.8594,4.8594,0,0,0-.6662-2.8114,2.41753,2.41753,0,0,0-2.11971-.9358,3.18129,3.18129,0,0,0-2.8596,1.3218,8.22735,8.22735,0,0,0-.8833,4.3915v8.1436H187.0155V8.7855h3.60559l0.63361,2.2193h0.2644a5.01611,5.01611,0,0,1,2.17819-1.897,7.38352,7.38352,0,0,1,3.14531-.6392,6.05167,6.05167,0,0,1,4.58339,1.6325,6.558,6.558,0,0,1,1.565,4.7143v11.283Zm-83.86729,0h-5.4502l-5.9306-9.5388-2.0302,1.4533v8.0855H100.912V3.4584h4.8007V13.8165l1.8916-2.6637,6.1268-7.6944h5.3291L111.168,13.4786Z"/><polygon class="cls-2" points="8.449 25.904 2.863 25.904 0 14.766 2.863 3.628 8.449 3.628 5.586 14.766 8.449 25.904"/><polygon class="cls-2" points="218.096 3.628 212.51 3.628 206.784 25.904 212.37 25.904 218.096 3.628"/><polygon class="cls-2" points="221.007 25.904 226.593 25.904 229.456 14.766 226.593 3.628 221.007 3.628 223.87 14.766 221.007 25.904"/></svg>