<svg id="Layer_1" data-name="Layer 1" xmlns="http://www.w3.org/2000/svg" viewBox="0 0 231.4561 66.0777"><defs><style>.cls-1{fill:#fff;}.cls-1,.cls-2{fill-rule:evenodd;}.cls-2,.cls-3{fill:#e50000;}</style></defs><title>dadekavan-logo-eslah shode96</title><path class="cls-1" d="M87.2036,10.9736a4.18449,4.18449,0,0,0-3.2559,1.3317,6.062,6.062,0,0,0-1.4329,3.6783H91.385a5.6364,5.6364,0,0,0-1.0834-3.7208,3.81874,3.81874,0,0,0-3.098-1.2892M65.444,24.2596a4.68829,4.68829,0,0,0,3.8214-1.4326,7.25433,7.25433,0,0,0,1.1843-4.6242V17.6639q0-3.60735-1.2002-5.1474a4.56445,4.56445,0,0,0-3.8372-1.5429,3.9409,3.9409,0,0,0-3.4631,1.7598,8.735,8.735,0,0,0-1.1999,4.9626,8.3431,8.3431,0,0,0,1.1945,4.9042A4.039,4.039,0,0,0,65.444,24.2596Zm5.1432-.4334H70.4497a6.04226,6.04226,0,0,1-5.3291,2.5894,6.31992,6.31992,0,0,1-5.1854-2.2776,10.03646,10.03646,0,0,1-1.8505-6.4741,10.16822,10.16822,0,0,1,1.8613-6.5216A6.25764,6.25764,0,0,1,65.1206,8.817a6.17448,6.17448,0,0,1,5.2971,2.5104h0.201l-0.1058-1.226L70.4497,8.9123V2h2.5691V26.0984H70.9305Zm-26.835.4646a5.2061,5.2061,0,0,0,3.7698-1.3159,4.86473,4.86473,0,0,0,1.3745-3.6836V17.7592l-2.5753.1111a9.27155,9.27155,0,0,0-4.4189.951,2.86479,2.86479,0,0,0-1.3533,2.6212,2.62523,2.62523,0,0,0,.8462,2.1189A3.4841,3.4841,0,0,0,43.7522,24.2908Zm5.8104,1.8076L49.0501,23.683H48.9229a7.22138,7.22138,0,0,1-2.5271,2.1674,7.7691,7.7691,0,0,1-3.1504.5652,5.678,5.678,0,0,1-3.9598-1.2999,4.77483,4.77483,0,0,1-1.4323-3.7103q0-5.1441,8.2196-5.3904l2.882-.0952V14.8681a4.30713,4.30713,0,0,0-.8569-2.9438,3.54432,3.54432,0,0,0-2.7488-.9507,11.1938,11.1938,0,0,0-4.8002,1.3l-0.788-1.9664a12.1408,12.1408,0,0,1,2.7439-1.0729,11.90922,11.90922,0,0,1,2.9971-.3855,6.46527,6.46527,0,0,1,4.4986,1.3478,5.60669,5.60669,0,0,1,1.4649,4.3172V26.0984H49.5626ZM29.4094,14.6569q0-4.4313-2.2206-6.6696-2.22045-2.243-6.6025-2.2459H16.7587v18.074H19.963q4.7094,0,7.0778-2.3148Q29.41215,19.18625,29.4094,14.6569Zm2.7908-.0955q0,5.6049-3.0445,8.572-3.0447,2.96535-8.7601,2.965H14.1267V3.4584H21.062q5.28135,0,8.2094,2.9273Q32.1985,9.3116,32.2002,14.5614ZM87.9009,26.4156a7.78755,7.78755,0,0,1-5.9357-2.2938,8.86356,8.86356,0,0,1-2.1779-6.3683,9.83977,9.83977,0,0,1,2.0194-6.5214A6.70965,6.70965,0,0,1,87.2354,8.817a6.39217,6.39217,0,0,1,5.0482,2.0982,8.05114,8.05114,0,0,1,1.8612,5.5335v1.6274H82.4516a6.761,6.761,0,0,0,1.5069,4.5397,5.234,5.234,0,0,0,4.0377,1.5483,13.63648,13.63648,0,0,0,5.4187-1.1467v2.2938a13.72873,13.72873,0,0,1-2.5795.8507A14.57926,14.57926,0,0,1,87.9009,26.4156Z"/><path class="cls-2" d="M133.46651,18.0764l-1.82391.0632a5.816,5.816,0,0,0-3.071.7452,2.33445,2.33445,0,0,0-1.0052,2.077q0,1.99755,2.2944,1.9973a3.62755,3.62755,0,0,0,2.6223-.9457,3.32375,3.32375,0,0,0,.98341-2.5106V18.0764Zm1.39569,8.022-0.915-2.3513h-0.1216a6.99011,6.99011,0,0,1-2.45821,2.0869,7.92782,7.92782,0,0,1-3.2879.5816,5.31888,5.31888,0,0,1-3.9277-1.4269,5.47026,5.47026,0,0,1-1.4326-4.059,4.57742,4.57742,0,0,1,1.9298-4.0694,11.1451,11.1451,0,0,1,5.8147-1.4476l3.00281-.0953V14.5566q0-2.63235-2.69641-2.6323a12.2806,12.2806,0,0,0-4.8733,1.253l-1.565-3.1814a14.09694,14.09694,0,0,1,6.6288-1.5593,8.26316,8.26316,0,0,1,5.3391,1.5165,5.59353,5.59353,0,0,1,1.8609,4.6143v11.531h-3.2984Zm14.54941,0L142.8092,8.7855h4.9422l3.3468,9.8669a17.87355,17.87355,0,0,1,.6976,3.5458h0.0896a15.5047,15.5047,0,0,1,.69759-3.5458l3.33611-9.8669h4.93741L154.2589,26.0984h-4.84729Zm25.7831-8.022-1.82381.0632a5.81522,5.81522,0,0,0-3.0708.7452,2.33393,2.33393,0,0,0-1.0054,2.077q0,1.99755,2.2946,1.9973a3.62706,3.62706,0,0,0,2.6221-.9457,3.323,3.323,0,0,0,.98331-2.5106V18.0764Zm1.3958,8.022-0.915-2.3513h-0.12161a6.98777,6.98777,0,0,1-2.458,2.0869,7.92782,7.92782,0,0,1-3.2879.5816,5.31877,5.31877,0,0,1-3.9277-1.4269,5.47069,5.47069,0,0,1-1.4326-4.059,4.57776,4.57776,0,0,1,1.92961-4.0694,11.14576,11.14576,0,0,1,5.815-1.4476l3.0024-.0953V14.5566q0-2.63235-2.696-2.6323a12.28174,12.28174,0,0,0-4.8736,1.253l-1.565-3.1814a14.097,14.097,0,0,1,6.62909-1.5593,8.26288,8.26288,0,0,1,5.339,1.5165,5.594,5.594,0,0,1,1.8607,4.6143v11.531h-3.2984Zm26.4005,0h-4.7262V15.9887a4.8594,4.8594,0,0,0-.6662-2.8114,2.41753,2.41753,0,0,0-2.11971-.9358,3.18129,3.18129,0,0,0-2.8596,1.3218,8.22735,8.22735,0,0,0-.8833,4.3915v8.1436H187.0155V8.7855h3.60559l0.63361,2.2193h0.2644a5.01611,5.01611,0,0,1,2.17819-1.897,7.38352,7.38352,0,0,1,3.14531-.6392,6.05167,6.05167,0,0,1,4.58339,1.6325,6.558,6.558,0,0,1,1.565,4.7143v11.283Zm-83.86729,0h-5.4502l-5.9306-9.5388-2.0302,1.4533v8.0855H100.912V3.4584h4.8007V13.8165l1.8916-2.6637,6.1268-7.6944h5.3291L111.168,13.4786Z"/><path class="cls-1" d="M217.1319,42.8968a3.44375,3.44375,0,0,0,.5448-0.0414,3.49879,3.49879,0,0,0,.4147-0.0878v0.8155a1.97112,1.97112,0,0,1-.5088.1377,3.72392,3.72392,0,0,1-.60609.0548,1.84955,1.84955,0,0,1-2.03551-2.1473v-4.176h-1.006V36.9409l1.006-.4436,0.44791-1.4981h0.61479v1.6265h2.03751v0.8266h-2.03751v4.1301a1.42292,1.42292,0,0,0,.30161.9754,1.05437,1.05437,0,0,0,.8266.339m-4.4209-6.402a4.25386,4.25386,0,0,1,.8373.0762l-0.14679.991a3.64129,3.64129,0,0,0-.76961-0.0964,1.87042,1.87042,0,0,0-1.4559.6906,2.5314,2.5314,0,0,0-.6035,1.7234v3.7647h-1.0647V36.6257h0.8788l0.1201,1.2966h0.0528a3.06881,3.06881,0,0,1,.93991-1.0559A2.124,2.124,0,0,1,212.711,36.4948Zm-10.4145,3.6337a3.34009,3.34009,0,0,0,.5377,2.0512,2.13668,2.13668,0,0,0,3.1683.0019,3.31568,3.31568,0,0,0,.5403-2.0531,3.2605,3.2605,0,0,0-.5403-2.033,1.90119,1.90119,0,0,0-1.59821-.6959,1.8694,1.8694,0,0,0-1.57629.6846A3.30418,3.30418,0,0,0,202.29649,40.1285Zm5.34811,0a3.88352,3.88352,0,0,1-.86371,2.683,3.04883,3.04883,0,0,1-2.38989.9641,3.16586,3.16586,0,0,1-1.6727-.4414,2.93033,2.93033,0,0,1-1.1257-1.2705,4.39506,4.39506,0,0,1-.398-1.9352,3.86727,3.86727,0,0,1,.8595-2.6762,3.03036,3.03036,0,0,1,2.38081-.9575,2.96721,2.96721,0,0,1,2.3414.9793A3.8583,3.8583,0,0,1,207.64461,40.1285Zm-10.9848-2.7289a1.88746,1.88746,0,0,0-1.55681.595,3.063,3.063,0,0,0-.49379,1.8975v0.2364a3.49855,3.49855,0,0,0,.49379,2.1163,1.87146,1.87146,0,0,0,1.5831.6387,1.64257,1.64257,0,0,0,1.425-.737,3.4955,3.4955,0,0,0,.51649-2.031,3.36327,3.36327,0,0,0-.51649-2.0138A1.69642,1.69642,0,0,0,196.65981,37.3996Zm0.1528,6.376a3.05236,3.05236,0,0,1-1.2527-.2535,2.36242,2.36242,0,0,1-.9507-0.7784H194.5327a9.61857,9.61857,0,0,1,.07651,1.1654V46.793h-1.063V36.6257h0.8634l0.14859,0.9576h0.051a2.465,2.465,0,0,1,.955-0.8328,2.89858,2.89858,0,0,1,1.24841-.2557,2.602,2.602,0,0,1,2.15849.9555,4.21058,4.21058,0,0,1,.7583,2.6782,4.18665,4.18665,0,0,1-.77161,2.6892A2.60245,2.60245,0,0,1,196.81261,43.7756Zm-8.19241-6.376a1.88849,1.88849,0,0,0-1.5571.595,3.063,3.063,0,0,0-.49379,1.8975v0.2364a3.49855,3.49855,0,0,0,.49379,2.1163,1.87221,1.87221,0,0,0,1.5831.6387,1.64309,1.64309,0,0,0,1.42531-.737,3.4955,3.4955,0,0,0,.51649-2.031,3.36327,3.36327,0,0,0-.51649-2.0138A1.69681,1.69681,0,0,0,188.62019,37.3996Zm0.15271,6.376a3.0533,3.0533,0,0,1-1.2529-.2535,2.36435,2.36435,0,0,1-.9507-0.7784H186.4928a9.61857,9.61857,0,0,1,.07651,1.1654V46.793h-1.063V36.6257H186.37l0.14861,0.9576h0.0507a2.46506,2.46506,0,0,1,.95529-0.8328,2.89838,2.89838,0,0,1,1.24831-.2557,2.60262,2.60262,0,0,1,2.1586.9555,4.21233,4.21233,0,0,1,.7583,2.6782,4.18674,4.18674,0,0,1-.77161,2.6892A2.60332,2.60332,0,0,1,188.7729,43.7756Zm-10.3203-7.1499v4.5545a1.82491,1.82491,0,0,0,.39169,1.2815,1.59187,1.59187,0,0,0,1.22459.4218,2.00285,2.00285,0,0,0,1.61121-.6009,3.04964,3.04964,0,0,0,.5097-1.9679v-3.689h1.06239v7.0186h-0.87709l-0.15271-.938h-0.059a2.115,2.115,0,0,1-.90741.794,3.03925,3.03925,0,0,1-1.3232.2753,2.69258,2.69258,0,0,1-1.9196-.6081,2.59623,2.59623,0,0,1-.63609-1.9479V36.6257h1.0755Zm-2.75281,4.5306a2.30044,2.30044,0,0,1-.896,1.9285,3.89444,3.89444,0,0,1-2.4355.6908,6.08743,6.08743,0,0,1-2.56281-.4306V42.2933a6.79183,6.79183,0,0,0,1.2549.3847,6.5989,6.5989,0,0,0,1.34671.1397,2.71547,2.71547,0,0,0,1.64009-.413,1.34846,1.34846,0,0,0,.55081-1.148,1.48123,1.48123,0,0,0-.19421-0.7954,1.86066,1.86066,0,0,0-.65359-0.5754,9.13982,9.13982,0,0,0-1.3952-.5948,4.46613,4.46613,0,0,1-1.86749-1.1086,2.44615,2.44615,0,0,1-.56151-1.6727,2.07782,2.07782,0,0,1,.81351-1.7229,3.39244,3.39244,0,0,1,2.1532-.6406,6.33852,6.33852,0,0,1,2.569.5122l-0.339.9462a5.791,5.791,0,0,0-2.2561-.4876,2.18738,2.18738,0,0,0-1.35129.3717,1.2271,1.2271,0,0,0-.4875,1.034,1.60158,1.60158,0,0,0,.17909.7986,1.685,1.685,0,0,0,.60611.5703,7.57292,7.57292,0,0,0,1.30479.5729,5.14132,5.14132,0,0,1,2.0267,1.1287A2.21251,2.21251,0,0,1,175.6998,41.1563Zm-18.8356.0616a2.52081,2.52081,0,0,1,.4456-1.4743,4.80108,4.80108,0,0,1,1.59869-1.2941,7.66505,7.66505,0,0,1-.74149-0.9226,3.18249,3.18249,0,0,1-.3101-0.6517,2.17877,2.17877,0,0,1-.116-0.7064,1.867,1.867,0,0,1,.62929-1.4973,2.59965,2.59965,0,0,1,1.7473-.5383,2.35223,2.35223,0,0,1,1.6333.5358,1.89609,1.89609,0,0,1,.59671,1.489,2.05424,2.05424,0,0,1-.4351,1.2637,4.92755,4.92755,0,0,1-1.4408,1.1744l2.60669,2.5058a3.09306,3.09306,0,0,0,.5726-0.9314,7.95152,7.95152,0,0,0,.36311-1.1702h1.07549a6.10757,6.10757,0,0,1-1.31439,2.7791l1.9153,1.8649h-1.4666l-1.1852-1.1392a4.54442,4.54442,0,0,1-3.27971,1.2705,3.09966,3.09966,0,0,1-2.1364-.6801A2.39149,2.39149,0,0,1,156.8642,41.2179Zm2.9211,1.5998a3.53226,3.53226,0,0,0,2.56221-.9859l-2.79831-2.7155a5.97079,5.97079,0,0,0-1.00609.7194,1.89352,1.89352,0,0,0-.4373.6126,1.85727,1.85727,0,0,0-.1398.7432,1.50471,1.50471,0,0,0,.4964,1.1869A1.91929,1.91929,0,0,0,159.78529,42.8177ZM158.7926,36.145a1.66706,1.66706,0,0,0,.22929.8416,5.22413,5.22413,0,0,0,.7892.9646,4.20971,4.20971,0,0,0,1.1506-.8881,1.47375,1.47375,0,0,0,.32339-0.9383,1.05926,1.05926,0,0,0-.3302-0.8022,1.23271,1.23271,0,0,0-.8813-0.3101,1.35723,1.35723,0,0,0-.925.3084A1.02756,1.02756,0,0,0,158.7926,36.145Zm-7.2964,6.7518a3.43762,3.43762,0,0,0,.5446-0.0414,3.49938,3.49938,0,0,0,.4149-0.0878v0.8155a1.97347,1.97347,0,0,1-.5088.1377,3.72565,3.72565,0,0,1-.606.0548,1.84982,1.84982,0,0,1-2.0359-2.1473v-4.176H148.2993V36.9409l1.00569-.4436,0.44821-1.4981H150.368v1.6265h2.0376v0.8266H150.368v4.1301a1.42338,1.42338,0,0,0,.30161.9754A1.05392,1.05392,0,0,0,151.4962,42.8968Zm-5.5145.7475V39.1032a1.82459,1.82459,0,0,0-.3912-1.281,1.593,1.593,0,0,0-1.2245-.4226,2.02165,2.02165,0,0,0-1.61409.595,3.00652,3.00652,0,0,0-.51311,1.9678v3.6819h-1.063V36.6257h0.8638l0.1729,0.9576h0.0527a2.16752,2.16752,0,0,1,.9156-0.8039,2.9689,2.9689,0,0,1,1.3141-.2846,2.66193,2.66193,0,0,1,1.90919.6123,2.59809,2.59809,0,0,1,.6403,1.9567v4.5805h-1.0627Zm-9.4895-6.2577a1.72979,1.72979,0,0,0-1.3468.5516,2.50731,2.50731,0,0,0-.5921,1.5216h3.66881a2.33144,2.33144,0,0,0-.4481-1.5392A1.57972,1.57972,0,0,0,136.4922,37.3866Zm0.28909,6.389a3.22232,3.22232,0,0,1-2.45569-.9491,3.66854,3.66854,0,0,1-.90051-2.6348,4.07294,4.07294,0,0,1,.83481-2.698,2.77537,2.77537,0,0,1,2.24559-.9989,2.6457,2.6457,0,0,1,2.0883.8679,3.335,3.335,0,0,1,.76961,2.2896v0.6729h-4.8365a2.79936,2.79936,0,0,0,.6228,1.8783,2.167,2.167,0,0,0,1.671.6406,5.63538,5.63538,0,0,0,2.24051-.4745v0.949a5.64969,5.64969,0,0,1-1.0667.3521A5.99994,5.99994,0,0,1,136.7813,43.7756Zm-6.2229-.1313V39.0768a1.887,1.887,0,0,0-.3586-1.2571,1.38444,1.38444,0,0,0-1.11321-.4201,1.7974,1.7974,0,0,0-1.46629.5712,2.71012,2.71012,0,0,0-.4751,1.7535v3.92h-1.0624V39.0768a1.90141,1.90141,0,0,0-.3583-1.2571,1.39641,1.39641,0,0,0-1.122-.4201,1.73633,1.73633,0,0,0-1.4627.5992,3.24958,3.24958,0,0,0-.4631,1.9636v3.6819h-1.063V36.6257h0.8637l0.1729,0.9576h0.0524a2.08123,2.08123,0,0,1,.84821-0.7997,2.58933,2.58933,0,0,1,1.22649-.2888,2.08666,2.08666,0,0,1,2.1515,1.1914h0.0502a2.25843,2.25843,0,0,1,.9099-0.8725,2.84583,2.84583,0,0,1,1.35751-.3189,2.37756,2.37756,0,0,1,1.78439.6123,2.74206,2.74206,0,0,1,.59219,1.9567v4.5805h-1.0647Zm-13.8708-6.2447a1.88757,1.88757,0,0,0-1.5568.595,3.061,3.061,0,0,0-.494,1.8975v0.2364a3.49628,3.49628,0,0,0,.494,2.1163,1.8713,1.8713,0,0,0,1.5829.6387,1.64307,1.64307,0,0,0,1.4253-.737,3.49627,3.49627,0,0,0,.5164-2.031,3.364,3.364,0,0,0-.5164-2.0138A1.69686,1.69686,0,0,0,116.6876,37.3996Zm0.1528,6.376a3.05335,3.05335,0,0,1-1.2529-.2535,2.36313,2.36313,0,0,1-.9507-0.7784h-0.0763a9.65712,9.65712,0,0,1,.0763,1.1654V46.793H113.574V36.6257h0.8635l0.1485,0.9576h0.0508a2.46483,2.46483,0,0,1,.9552-0.8328,2.89879,2.89879,0,0,1,1.2484-.2557,2.60223,2.60223,0,0,1,2.1586.9555,4.21233,4.21233,0,0,1,.7583,2.6782,4.18732,4.18732,0,0,1-.7716,2.6892A2.603,2.603,0,0,1,116.8404,43.7756Zm-10.4797-3.6471a3.34,3.34,0,0,0,.5378,2.0512,2.13657,2.13657,0,0,0,3.16821.0019,3.315,3.315,0,0,0,.5403-2.0531,3.25986,3.25986,0,0,0-.5403-2.033,1.90062,1.90062,0,0,0-1.59811-.6959,1.87013,1.87013,0,0,0-1.5764.6846A3.30484,3.30484,0,0,0,106.3607,40.1285Zm5.3482,0a3.88162,3.88162,0,0,1-.8638,2.683,3.04821,3.04821,0,0,1-2.3896.9641,3.16722,3.16722,0,0,1-1.673-.4414,2.92887,2.92887,0,0,1-1.1253-1.2705,4.38952,4.38952,0,0,1-.398-1.9352,3.86713,3.86713,0,0,1,.8592-2.6762,3.03032,3.03032,0,0,1,2.3808-.9575,2.96676,2.96676,0,0,1,2.3414.9793A3.85681,3.85681,0,0,1,111.7089,40.1285Zm-8.3149,3.5158h-1.063v-9.97h1.063v9.97Zm-5.7467-6.2577a1.72944,1.72944,0,0,0-1.3467.5516,2.50805,2.50805,0,0,0-.5922,1.5216h3.6689a2.33086,2.33086,0,0,0-.4482-1.5392A1.57971,1.57971,0,0,0,97.6473,37.3866Zm0.2891,6.389a3.222,3.222,0,0,1-2.4556-.9491,3.66818,3.66818,0,0,1-.9006-2.6348,4.0729,4.0729,0,0,1,.8348-2.698,2.77565,2.77565,0,0,1,2.2456-.9989,2.64529,2.64529,0,0,1,2.0883.8679,3.33456,3.33456,0,0,1,.7696,2.2896v0.6729H95.682a2.80042,2.80042,0,0,0,.6228,1.8783,2.167,2.167,0,0,0,1.671.6406,5.63469,5.63469,0,0,0,2.2405-.4745v0.949a5.64166,5.64166,0,0,1-1.0666.3521A6,6,0,0,1,97.9364,43.7756Zm-8.0002-.1313-2.6657-7.0186h1.1412l1.5112,4.1633a19.29783,19.29783,0,0,1,.60091,1.8952h0.0528a13.90864,13.90864,0,0,1,.4439-1.4057q0.37665-1.0659,1.6815-4.6528h1.1412l-2.6657,7.0186H89.9362Zm-5.9584-6.2577a1.73008,1.73008,0,0,0-1.347.5516,2.50985,2.50985,0,0,0-.5922,1.5216h3.6689a2.33086,2.33086,0,0,0-.4482-1.5392A1.57909,1.57909,0,0,0,83.9778,37.3866Zm0.2888,6.389a3.22128,3.22128,0,0,1-2.4553-.9491,3.667,3.667,0,0,1-.9009-2.6348,4.07455,4.07455,0,0,1,.8348-2.698,2.77606,2.77606,0,0,1,2.2456-.9989,2.64529,2.64529,0,0,1,2.0883.8679,3.33456,3.33456,0,0,1,.7696,2.2896v0.6729H82.0123a2.8,2.8,0,0,0,.623,1.8783,2.16591,2.16591,0,0,0,1.6707.6406,5.63644,5.63644,0,0,0,2.2408-.4745v0.949a5.65566,5.65566,0,0,1-1.0666.3521A6.00121,6.00121,0,0,1,84.2666,43.7756Zm-6.0474-4.8649a3.76815,3.76815,0,0,0-.9187-2.7595,3.68481,3.68481,0,0,0-2.7306-.9289H72.9867v7.4778h1.325a4.03171,4.03171,0,0,0,2.9281-.9578A3.78774,3.78774,0,0,0,78.2192,38.9107Zm1.1546-.0394A4.72809,4.72809,0,0,1,78.114,42.418a4.98146,4.98146,0,0,1-3.6232,1.2263H71.8982V34.2781h2.8684A4.20537,4.20537,0,0,1,79.3738,38.8713ZM63.646,37.3866a1.73023,1.73023,0,0,0-1.347.5516,2.50985,2.50985,0,0,0-.5922,1.5216h3.6689a2.33136,2.33136,0,0,0-.4481-1.5392A1.57942,1.57942,0,0,0,63.646,37.3866Zm0.2889,6.389a3.22235,3.22235,0,0,1-2.4557-.9491,3.66861,3.66861,0,0,1-.9006-2.6348,4.07454,4.07454,0,0,1,.8348-2.698,2.77613,2.77613,0,0,1,2.2457-.9989,2.64494,2.64494,0,0,1,2.0882.8679,3.33456,3.33456,0,0,1,.7696,2.2896v0.6729H61.6805a2.79994,2.79994,0,0,0,.623,1.8783,2.166,2.166,0,0,0,1.6708.6406,5.63682,5.63682,0,0,0,2.2408-.4745v0.949a5.652,5.652,0,0,1-1.067.3521A5.99567,5.99567,0,0,1,63.9349,43.7756Zm-4.8561-7.2808a4.25358,4.25358,0,0,1,.8374.0762l-0.1466.991A3.64425,3.64425,0,0,0,59,37.4656a1.8699,1.8699,0,0,0-1.4558.6906,2.52941,2.52941,0,0,0-.6035,1.7234v3.7647h-1.065V36.6257h0.8787l0.1202,1.2966h0.0527a3.07077,3.07077,0,0,1,.9403-1.0559A2.123,2.123,0,0,1,59.0788,36.4948Zm-8.5841,6.402a2.15069,2.15069,0,0,0,1.5585-.5448,2.00874,2.00874,0,0,0,.5686-1.5233V40.1943l-1.065.0456a3.837,3.837,0,0,0-1.8275.3937,1.18437,1.18437,0,0,0-.5595,1.0843,1.08758,1.08758,0,0,0,.3495.8767A1.4418,1.4418,0,0,0,50.4947,42.8968Zm2.4029,0.7475-0.2126-.9989H52.6331a2.98428,2.98428,0,0,1-1.0454.8963,3.20791,3.20791,0,0,1-1.3031.2339,2.34707,2.34707,0,0,1-1.6375-.5378,1.975,1.975,0,0,1-.5931-1.5349q0-2.12865,3.4002-2.2301l1.192-.0394V38.9986a1.7832,1.7832,0,0,0-.3546-1.2186,1.46712,1.46712,0,0,0-1.137-.3934,4.6292,4.6292,0,0,0-1.9848.5382l-0.326-.8135a5.01046,5.01046,0,0,1,1.1344-.4436,4.92083,4.92083,0,0,1,1.2396-.1599,2.6732,2.6732,0,0,1,1.8609.5579,2.31934,2.31934,0,0,1,.6061,1.7861v4.7925H52.8976Zm-8.7882,0-1.2873-4.1167q-0.121-.37725-0.4549-1.7167H42.317c-0.1704.7475-.3214,1.3229-0.4481,1.7297l-1.3275,4.1037H39.3126l-1.9174-7.0186h1.1152q0.6786,2.64345,1.0366,4.0281a16.58587,16.58587,0,0,1,.4059,1.8643h0.0508c0.0476-.2443.1221-0.5595,0.2276-0.9445,0.1046-.3866.1941-0.6931,0.2732-0.9198l1.2872-4.0281h1.1526l1.2549,4.0281a13.36939,13.36939,0,0,1,.4876,1.8513h0.0524a5.98123,5.98123,0,0,1,.1381-0.7101q0.11175-.48225,1.3362-5.1693h1.1018l-1.9417,7.0186H44.1094Zm-8.0961-.7475a3.43754,3.43754,0,0,0,.5446-0.0414,3.50612,3.50612,0,0,0,.415-0.0878v0.8155a1.97555,1.97555,0,0,1-.5089.1377,3.72381,3.72381,0,0,1-.606.0548,1.84961,1.84961,0,0,1-2.0356-2.1473v-4.176h-1.006V36.9409l1.006-.4436,0.4479-1.4981h0.6148v1.6265h2.0376v0.8266H34.8851v4.1301a1.4234,1.4234,0,0,0,.3016.9754A1.05436,1.05436,0,0,0,36.0133,42.8968Zm-3.5484-5.4445H30.6785v6.192H29.6138v-6.192H28.3589V36.9716l1.2549-.3847V36.1951q0-2.5872,2.2632-2.5866a4.60759,4.60759,0,0,1,1.3054.2251l-0.2758.853a3.46851,3.46851,0,0,0-1.0497-.1993,1.01959,1.01959,0,0,0-.8892.4005,2.23006,2.23006,0,0,0-.2892,1.2835v0.4544h1.7864v0.8266ZM22.0881,40.1285a3.338,3.338,0,0,0,.5378,2.0512,2.13634,2.13634,0,0,0,3.168.0019,3.31369,3.31369,0,0,0,.5402-2.0531,3.25854,3.25854,0,0,0-.5402-2.033,1.90093,1.90093,0,0,0-1.5982-.6959,1.87011,1.87011,0,0,0-1.5764.6846A3.30489,3.30489,0,0,0,22.0881,40.1285Zm5.3479,0a3.88208,3.88208,0,0,1-.8637,2.683,3.04857,3.04857,0,0,1-2.3897.9641,3.16565,3.16565,0,0,1-1.6727-.4414,2.92827,2.92827,0,0,1-1.1256-1.2705,4.391,4.391,0,0,1-.398-1.9352,3.86713,3.86713,0,0,1,.8592-2.6762,3.03032,3.03032,0,0,1,2.3808-.9575,2.96741,2.96741,0,0,1,2.3417.9793A3.85817,3.85817,0,0,1,27.436,40.1285Zm-7.8123,1.0278a2.30066,2.30066,0,0,1-.8963,1.9285,3.89376,3.89376,0,0,1-2.4356.6908,6.08617,6.08617,0,0,1-2.5625-.4306V42.2933a6.7909,6.7909,0,0,0,1.2546.3847,6.60479,6.60479,0,0,0,1.3471.1397,2.71593,2.71593,0,0,0,1.6401-.413,1.34921,1.34921,0,0,0,.5508-1.148,1.48221,1.48221,0,0,0-.1942-0.7954,1.86378,1.86378,0,0,0-.6537-0.5754,9.14414,9.14414,0,0,0-1.3952-.5948,4.46707,4.46707,0,0,1-1.8677-1.1086,2.44716,2.44716,0,0,1-.5616-1.6727,2.07763,2.07763,0,0,1,.8136-1.7229,3.39306,3.39306,0,0,1,2.1534-.6406,6.34,6.34,0,0,1,2.5691.5122l-0.339.9462a5.7928,5.7928,0,0,0-2.2564-.4876,2.18779,2.18779,0,0,0-1.3513.3717,1.22769,1.22769,0,0,0-.4876,1.034,1.60136,1.60136,0,0,0,.1795.7986,1.6846,1.6846,0,0,0,.606.5703,7.58042,7.58042,0,0,0,1.3048.5729,5.14489,5.14489,0,0,1,2.0268,1.1287A2.21293,2.21293,0,0,1,19.6237,41.1563Z"/><path class="cls-1" d="M13.5533,58.1364h1.6231v2.3902a2.05865,2.05865,0,0,0,.6248,1.6509,2.99625,2.99625,0,0,0,1.9723.5335h0.521a2.243,2.243,0,0,0,1.6251-.5522,2.29715,2.29715,0,0,0,.5207-1.6577l-0.0068-3.3625h1.645v3.4263a3.828,3.828,0,0,1-.9763,2.8227,3.95967,3.95967,0,0,1-2.8573,1.0111H17.761q-2.8653,0-3.7947-1.8569a4.46373,4.46373,0,0,1-.413-2.0024v-2.403Zm10.082-5.4073h1.5996v8.7015H23.6353V52.7291Zm7.9001,8.526q0,3.46875-3.8401,3.4688c-0.0771,0-.2267-0.0017-0.4518-0.0063H26.9739V63.0361h0.8782a2.45,2.45,0,0,0,1.5372-.3855,1.45377,1.45377,0,0,0,.4751-1.2007c-0.1154.0082-.3552,0.0124-0.7149,0.0124a2.28013,2.28013,0,0,1-1.743-.6403,2.40916,2.40916,0,0,1-.6018-1.726,2.28855,2.28855,0,0,1,2.3448-2.7414h0.1389a2.05773,2.05773,0,0,1,1.5956.737,3.05743,3.05743,0,0,1,.6557,2.099v0.0318l-0.0043,1.9893v0.0434Zm-1.5825-1.8269a1.546,1.546,0,0,0-.3816-1.3663,1.05832,1.05832,0,0,0-.7152-0.0621,0.82815,0.82815,0,0,0-.5397,1.0083,0.80713,0.80713,0,0,0,.1179.4652,1.678,1.678,0,0,0,1.5117.2888C29.9503,59.6399,29.9529,59.5283,29.9529,59.4282Zm12.8103,0.3209q1.06725,0.0063,1.0542-.5911a0.70017,0.70017,0,0,0-.1568-0.4005c-0.1009-.1349-0.2506-0.3166-0.4518-0.5522l-1.7002-1.9386c-0.2846-.3297-0.4564-0.5352-0.514-0.614a1.066,1.066,0,0,1-.1825-0.754,1.30767,1.30767,0,0,1,.904-1.2229l4.3903-1.6126v1.7005l-3.6383,1.2354,1.8374,2.0712q1.62555,1.8246.7047,3.3066a2.149,2.149,0,0,1-1.9468,1.0599H35.8892v0.0063H35.7565a2.53536,2.53536,0,0,1-1.9706-.741,3.04231,3.04231,0,0,1-.6832-2.1325V52.7333h1.6189v5.7804a1.506,1.506,0,0,0,.2381.957,0.93359,0.93359,0,0,0,.7534.2852H35.769V59.7491h6.9942Zm9.858,1.6619a2.381,2.381,0,0,1-2.2337-.9595,1.80233,1.80233,0,0,1-.2764-0.9916,4.41186,4.41186,0,0,1,1.3298-2.7731l-0.233-.212,0.955-1.0729,0.1888,0.1437q2.6208,2.04555,2.6271,3.9597a1.80056,1.80056,0,0,1-.8524,1.5548A2.67512,2.67512,0,0,1,52.6212,61.411Zm-0.0941-3.6638a2.569,2.569,0,0,0-.8804,1.4948,0.50445,0.50445,0,0,0,.1947.4342,1.28622,1.28622,0,0,0,.7132.1418,1.34054,1.34054,0,0,0,.7177-0.1372,0.4573,0.4573,0,0,0,.201-0.4026A2.64335,2.64335,0,0,0,52.5271,57.7472Zm6.3431,3.6959H56.1359V59.7559h0.2693q2.33895,0.00555,2.9018-.0451a1.221,1.221,0,0,0,.6965-0.193,0.458,0.458,0,0,0,.0079-0.4814,7.40811,7.40811,0,0,0-1.0916-1.4521l-1.2917-1.4931,1.0729-1.1987,1.2296,1.4068c0.1412,0.1624.3856,0.4414,0.7277,0.8331,0.3427,0.394.5247,0.6035,0.5465,0.6336a2.40152,2.40152,0,0,1,.4193,2.2212Q61.1231,61.4482,58.8702,61.4431Zm4.4478-8.714h1.5996v8.7015H63.318V52.7291Zm5.904,8.714H66.4875V59.7559H66.757q2.33909,0.00555,2.90189-.0451a1.22033,1.22033,0,0,0,.69621-0.193,0.45872,0.45872,0,0,0,.00819-0.4814,7.41936,7.41936,0,0,0-1.0919-1.4521l-1.2915-1.4931,1.07291-1.1987,1.2297,1.4068c0.1409,0.1624.3852,0.4414,0.7276,0.8331,0.3428,0.394.5245,0.6035,0.5466,0.6336a2.40315,2.40315,0,0,1,.4192,2.2212Q71.4746,61.4482,69.222,61.4431Zm7.3514,2.1007q2.2365-.0063,2.2337-1.9998V57.9927l1.1676-.0062v3.5441q0,3.16815-3.388,3.187l-0.6511.0063V63.5438h0.6378Zm4.9581-10.8147h1.0987v8.7015H81.5315V52.7291Zm4.8529,2.8766a0.80976,0.80976,0,0,1,.574-1.3839,0.79464,0.79464,0,0,1,.5806.2356,0.7783,0.7783,0,0,1,.2355.568,0.79072,0.79072,0,0,1-.2355.5803A0.82659,0.82659,0,0,1,86.3844,55.6057Zm9.6092,0.4473a1.16237,1.16237,0,0,0-.7923-0.2568,0.97123,0.97123,0,0,0-1.0599,1.1349,0.952,0.952,0,0,0,.29539.8482,1.46909,1.46909,0,0,0,.7991.1879,9.54846,9.54846,0,0,0,1.0383-.0578c0.0088-.186.0125-0.3251,0.0125-0.413A2.163,2.163,0,0,0,95.9936,56.053ZM87.8,61.45711c0.0045,2.1203-1.118,3.26509-3.3899,3.26049H83.7652v-1.18h0.6194q2.26065,0.0063,2.2654-1.9812V57.9927l1.1546-.0062v1.2849a0.99276,0.99276,0,0,0,1.11.9788H94.216q1.995-.0063,1.99609-1.0082V59.128c-0.1973.0043-.40279,0.0068-0.621,0.0068-0.2189,0-.4031-0.0025-0.559-0.0068a1.86249,1.86249,0,0,1-1.4434-.5034,2.40063,2.40063,0,0,1-.4564-1.6294q0-2.29695,2.1141-2.2978a1.7776,1.7776,0,0,1,2.0831,1.7456c0.0326,0.5094.0496,0.7708,0.0496,0.7832v1.9707q0,2.2578-3.23769,2.2462l-1.34731-.0063H89.2412v0.0063H89.0974q-0.09479,0-.1848-0.0063l-1.042.01443M94.6528,53.3056a0.80966,0.80966,0,0,1,.5743-1.3838,0.79225,0.79225,0,0,1,.5802.2355,0.77954,0.77954,0,0,1,.2356.5678,0.79059,0.79059,0,0,1-.2356.5805A0.82494,0.82494,0,0,1,94.6528,53.3056Zm4.2831-.5765h1.0987v8.7015H98.9359V52.7291Zm11.0294,4.0328q1.67984,0.01875,1.6613,2.2161a2.53568,2.53568,0,0,1-.9464,2.2896,2.2138,2.2138,0,0,1-1.321.2701,2.05243,2.05243,0,0,1-1.3839-.5527,2.74717,2.74717,0,0,1-.70181-2.2144c0.0079-.3686.0212-0.6381,0.0363-0.8096q-1.50315.1446-1.5055,2.4647v4.1227h-1.0905V60.4322q0.00631-3.41085,2.5208-3.6703h2.73071Zm-0.5982,1.0429a2.85982,2.85982,0,0,0-.93111.0709,2.95882,2.95882,0,0,0-.0834,1.051,1.91963,1.91963,0,0,0,.3101,1.296,1.16225,1.16225,0,0,0,.87.3167c0.0445,0,.0958-0.002.1499-0.0063q0.87674-.0612.8779-1.6809A0.99477,0.99477,0,0,0,109.3671,57.8048Zm11.164,1.0599q0,2.57955-2.152,2.5784h-0.709l-0.33637-.02546-0.27472-.047-0.28631-.12518a1.43461,1.43461,0,0,1-.3892-0.2988V61.544q0.00675,3.18045-3.4005,3.1736h-0.6451v-1.18h0.6193q2.2608,0.0063,2.2658-1.9812V57.9927l1.1542-.0062v1.2849a1.04194,1.04194,0,0,0,1.2612.9851h0.6465a1.11287,1.11287,0,0,0,1.1288-1.3618V57.1024h1.1174v1.7623Zm-2.2034-3.3495a0.809,0.809,0,0,1,.5741-1.383,0.79114,0.79114,0,0,1,.5802.235,0.77868,0.77868,0,0,1,.2359.5678,0.78777,0.78777,0,0,1-.2359.5802A0.824,0.824,0,0,1,118.3277,55.5152ZM128.641,58.9077l-0.33131-1.8569q-2.53468.315-2.52339,1.3683Q125.7995,59.1907,128.641,58.9077Zm7.3418-1.0967q-0.01231-.56505-1.33-0.5714-1.63756,0-1.469.5884a1.20418,1.20418,0,0,0,.47739.5032c0.55281,0.388.8824,0.6131,0.99161,0.6707a4.51242,4.51242,0,0,0,.8849-0.6149A0.87738,0.87738,0,0,0,135.9828,57.811Zm4.39079,2.6901a2.16331,2.16331,0,0,1-1.74359.942H137.9894V61.4368h-0.2701q-2.43464.00645-3.0665-.6273l-0.04449-.0453-0.04311.0453q-0.66511.6327-3.0881,0.6336h-0.3943V61.4368h-0.201a1.77091,1.77091,0,0,1-1.87651-1.3813q-4.08269.4269-4.22729-1.33-0.1701-2.14515,3.28081-2.6963l-0.11341-.5908,1.1245-.212,0.62109,3.6187a1.36866,1.36866,0,0,0,1.32291,1.4051h0.1826v0.0063h0.1051q2.25824,0,2.6422-.4711Q131.86,58.6007,131.9097,57.61a1.34519,1.34519,0,0,1,.8674-1.1607,4.395,4.395,0,0,1,1.76849-.2634,3.66,3.66,0,0,1,2.31511.5202,1.29433,1.29433,0,0,1,.3129,1.182q-0.09315.819-1.8502,1.9228,0.347,0.46635,2.56511.4456l0.2401-.0063v0.0063h0.06889a1.285,1.285,0,0,0,1.548-1.3422l0.0071-1.5381H140.87V58.946a1.07817,1.07817,0,0,0,1.10921,1.3042,1.04169,1.04169,0,0,0,1.07289-1.2784V57.383h1.1183v1.5826a1.08686,1.08686,0,0,0,1.16071,1.2846q0.91546,0.0069.9142-1.2784V57.1066h1.1245V58.978q-0.00675,2.46405-1.9899,2.4651a1.67093,1.67093,0,0,1-1.80679-1.135,1.47244,1.47244,0,0,1-1.5381,1.135A1.70633,1.70633,0,0,1,140.3736,60.5011Zm10.28981-2.5659a0.98652,0.98652,0,0,0-1.15651,1.0536,1.21936,1.21936,0,0,0,.2959,1.0987,3.18728,3.18728,0,0,0,1.8394.1327,4.40886,4.40886,0,0,0-.17549-1.8865A0.917,0.917,0,0,0,150.66341,57.9352Zm6.67529,0.9295q0,2.57955-2.1523,2.5784H153.58V61.4368h-0.8479a3.35025,3.35025,0,0,1-.86481,2.503,3.58448,3.58448,0,0,1-2.52969.7778H148.674v-1.18h0.62741q2.18113,0.0063,2.2699-1.9744l0.0063-.1264H150.355a1.845,1.845,0,0,1-1.4559-.5655,2.72859,2.72859,0,0,1-.388-2.0324,2.30376,2.30376,0,0,1,.49521-1.3981,2.11414,2.11414,0,0,1,1.68089-.6086,1.862,1.862,0,0,1,2.00241,1.7498,6.35772,6.35772,0,0,1,.05559,1.0234l-0.01929.6644,0.9915-.0196v0.0063h1.37489a1.11285,1.11285,0,0,0,1.12869-1.3618V57.1024h1.11771v1.7623ZM154.171,55.5152a0.809,0.809,0,0,1,.5743-1.383,0.79051,0.79051,0,0,1,.5802.235,0.776,0.776,0,0,1,.2356.5678,0.78519,0.78519,0,0,1-.2356.5802A0.82419,0.82419,0,0,1,154.171,55.5152Zm2.03239,0a0.82433,0.82433,0,1,1,.5806.2359A0.7813,0.7813,0,0,1,156.2034,55.5152Zm8.5621,5.9083a3.42167,3.42167,0,0,1-.58231.0388h-0.3838a1.90913,1.90913,0,0,1-2.0945-2.2203,2.83754,2.83754,0,0,1,.375-1.5186,1.88406,1.88406,0,0,1,1.7195-.8674H163.806a1.94886,1.94886,0,0,1,1.97659,1.4176,3.48071,3.48071,0,0,1,.15671,1.1671v0.0326l-0.0071,1.989v0.0428q0,3.2124-3.40041,3.2125c-0.04449.0046-.10719,0.0063-0.1882,0.0063-0.07939,0-.2294-0.0017-0.4519-0.0063H161.8741v-1.18h0.62759q2.26472,0,2.26381-1.8306V61.4235Zm-0.4326-3.3316a1.24082,1.24082,0,0,0-.5822-0.1179,0.9,0.9,0,0,0-.99161.7985,1.56783,1.56783,0,0,0,.1562,1.2147,1.36379,1.36379,0,0,0,1.118.3146,6.57627,6.57627,0,0,0,.80281-0.0708c0.0107-.1951.017-0.3793,0.017-0.5502A1.70187,1.70187,0,0,0,164.3329,58.0919Zm18.1709,0.7728q0,2.57955-2.1523,2.5784h-1.6064V61.4368H178.255v0.5457q0,2.6727-3.5121,2.7609h-0.43231q-4.11884,0-4.1227-3.0622V59.1535s0.37471,0.0026,1.1225.0045v2.5164q0,1.88265,3.01071,1.8824h0.26329l0.21431-.0062q2.34448-.0357,2.34709-1.5486V61.4368h-1.5764a0.584,0.584,0,0,1-.4756-0.5655c-0.09579-.3747-0.0808-0.5802.04341-0.6148l3.75839-.0063v0.0063h1.36211a1.11275,1.11275,0,0,0,1.12839-1.3618V57.1024h1.11771v1.7623Zm-2.2036-3.3495a0.809,0.809,0,0,1,.574-1.383,0.79135,0.79135,0,0,1,.58029.235,0.779,0.779,0,0,1,.23581.5678,0.78807,0.78807,0,0,1-.23581.5802A0.824,0.824,0,0,1,180.3002,55.5152Zm7.41429,8.5964a0.8099,0.8099,0,0,1,.57341-1.3839,0.791,0.791,0,0,1,.58029.2359,0.77545,0.77545,0,0,1,.2355.5677,0.78712,0.78712,0,0,1-.2355.5803A0.82422,0.82422,0,0,1,187.71449,64.1116Zm4.9875,0a0.8099,0.8099,0,0,1,.5741-1.3839,0.79317,0.79317,0,0,1,.5802.2359,0.77751,0.77751,0,0,1,.23561.5677,0.78916,0.78916,0,0,1-.23561.5803A0.825,0.825,0,0,1,192.702,64.1116Zm2.0325,0a0.816,0.816,0,1,1,1.38921-.5803,0.78891,0.78891,0,0,1-.23491.5803A0.825,0.825,0,0,1,194.7345,64.1116Zm3.62291-8.5964a0.809,0.809,0,0,1,.5743-1.383,0.79262,0.79262,0,0,1,.58029.235,0.77958,0.77958,0,0,1,.23561.5678,0.78867,0.78867,0,0,1-.23561.5802A0.82431,0.82431,0,0,1,198.35741,55.5152Zm2.03279,0a0.81382,0.81382,0,0,1,1.1517-1.15,0.78808,0.78808,0,0,1,.178.2634,0.77863,0.77863,0,0,1,.05951.3064,0.787,0.787,0,0,1-.235.5802A0.82384,0.82384,0,0,1,200.3902,55.5152Zm6.7453,0.4244a0.8099,0.8099,0,0,1,.574-1.3839,0.79371,0.79371,0,0,1,.58049.2359,0.77747,0.77747,0,0,1,.23561.5677,0.78945,0.78945,0,0,1-.23561.5803A0.82645,0.82645,0,0,1,207.1355,55.9396Zm2.03239,0a0.82658,0.82658,0,1,1,.58061.235A0.781,0.781,0,0,1,209.16789,55.9396ZM208.1633,53.995a0.812,0.812,0,0,1,1.14841-1.1483,0.76983,0.76983,0,0,1,.23549.5678,0.80435,0.80435,0,0,1-.8033.8161A0.795,0.795,0,0,1,208.1633,53.995Zm9.72881,4.8697q0,2.57955-2.152,2.5784h-2.1756a1.66221,1.66221,0,0,1-1.6124-1.0404,1.37853,1.37853,0,0,1-1.50551,1.0341,1.70333,1.70333,0,0,1-1.69389-1.1049,1.6038,1.6038,0,0,1-.5786.8285,1.96938,1.96938,0,0,1-2.6787-.7282,1.73752,1.73752,0,0,1-1.825,1.0109h-1.10489a2.16646,2.16646,0,0,1-1.681-.6894l-0.1241-.1267-0.1134.1329a2.16084,2.16084,0,0,1-1.68781.6832H197.064a2.16654,2.16654,0,0,1-1.68089-.6894l-0.12421-.1267-0.1134.1329a2.16071,2.16071,0,0,1-1.6877.6832h-1.9599a2.16693,2.16693,0,0,1-1.681-.6894l-0.12379-.1267-0.1134.1329a2.16182,2.16182,0,0,1-1.688.6832H186.4678q-2.39642,0-2.40291-2.6235V52.7333h1.11571v6.031a1.22182,1.22182,0,0,0,1.24469,1.4922h1.1217q1.58041,0,1.5806-1.3105V57.3529h1.15451V58.946q0,1.31055,1.6489,1.3105h1.1821q1.58041,0,1.5806-1.3105V57.3529h1.15451V58.946q0,1.31055,1.6489,1.3105h1.11749q1.57995,0,1.58051-1.3105V57.3529h1.1546V58.946q0,1.31055,1.6489,1.3105h0.40851q1.52309-.012,1.51169-1.1801l-0.01869-1.7039h1.1795v1.6552a1.04018,1.04018,0,0,0,1.12869,1.2225,1.00364,1.00364,0,0,0,1.01711-1.2288V57.3725h1.09669l0.0063,1.6356a1.0523,1.0523,0,0,0,1.1245,1.2421,0.9661,0.9661,0,0,0,.95331-1.197l0.0062-1.7003H212.434v1.4605a1.40714,1.40714,0,0,0,.5522,1.1993,1.47415,1.47415,0,0,0,.90369.2375h0.3898v0.0063h1.3663a1.11286,1.11286,0,0,0,1.12871-1.3618V57.1024h1.1174v1.7623Zm-3.2187,5.0326a0.82019,0.82019,0,0,1,0-1.15,0.77915,0.77915,0,0,1,.574-0.2333,0.7891,0.7891,0,0,1,.58029.2333,0.77992,0.77992,0,0,1,.2355.5697,0.79286,0.79286,0,0,1-.2355.5803A0.82925,0.82925,0,0,1,214.6734,63.8973Zm2.03239,0a0.81487,0.81487,0,0,1,1.1526-1.152,0.79623,0.79623,0,0,1,.2375.5717,0.79516,0.79516,0,0,1-.23579.5803,0.7801,0.7801,0,0,1-.574.2338A0.78921,0.78921,0,0,1,216.7058,63.8973Zm-1.004,1.9448a0.78323,0.78323,0,0,1-.23579-0.5743,0.79266,0.79266,0,0,1,.2332-0.5782,0.84791,0.84791,0,0,1,.2639-0.1712,0.82484,0.82484,0,0,1,.8862.1754,0.76568,0.76568,0,0,1,.23549.5678,0.78483,0.78483,0,0,1-.23549.5805,0.77361,0.77361,0,0,1-.56731.2356A0.79187,0.79187,0,0,1,215.7018,65.8421ZM16.9387,57.0357a0.85506,0.85506,0,0,1,.0641-0.3296,0.85328,0.85328,0,0,1,.3685-0.4156,0.741,0.741,0,0,1,.2035-0.0856,0.93169,0.93169,0,0,1,.4518,0,0.7359,0.7359,0,0,1,.2033.0856,1.05456,1.05456,0,0,1,.1823.1375,0.84012,0.84012,0,0,1,.2437.6077,0.82878,0.82878,0,0,1-.2463.6081A0.8609,0.8609,0,0,1,16.9387,57.0357Z"/><rect class="cls-3" x="13.538" y="47.593" width="204.5579" height="2.6535"/><polygon class="cls-2" points="8.449 25.904 2.863 25.904 0 14.766 2.863 3.628 8.449 3.628 5.586 14.766 8.449 25.904"/><polygon class="cls-2" points="218.096 3.628 212.51 3.628 206.784 25.904 212.37 25.904 218.096 3.628"/><polygon class="cls-2" points="221.007 25.904 226.593 25.904 229.456 14.766 226.593 3.628 221.007 3.628 223.87 14.766 221.007 25.904"/></svg>