<?xml version="1.0" encoding="iso-8859-1"?>
<!-- Generator: Adobe Illustrator 19.0.0, SVG Export Plug-In . SVG Version: 6.00 Build 0)  -->
<svg version="1.1" id="Capa_1" xmlns="http://www.w3.org/2000/svg" xmlns:xlink="http://www.w3.org/1999/xlink" x="0px" y="0px"
	 viewBox="0 0 512 512" style="enable-background:new 0 0 512 512;" xml:space="preserve">
<g>
	<g>
		<path d="M434.417,131.891c-0.693-2.343-2.484-4.201-4.8-4.979c-78.447-26.388-150.761-19.924-153.8-19.634
			c-2.057,0.195-3.941,1.229-5.21,2.859l-14.609,18.762l-14.609-18.762c-1.269-1.63-3.153-2.664-5.21-2.859
			c-3.039-0.289-75.354-6.754-153.8,19.634c-2.316,0.778-4.107,2.637-4.8,4.979c-0.694,2.343-0.203,4.877,1.316,6.791
			c0.634,0.799,15.928,19.736,50.764,34.396c2.924,1.229,6.454,0.8,8.594-1.541c2.105-2.304,2.704-5.362,1.307-8.128
			c-0.126-0.562-0.299-2.196,1.219-4.282c2.625-3.604,12.717-11.808,50.355-13.187l57.491,308.434
			c0.662,3.551,3.761,6.126,7.373,6.126s6.711-2.575,7.373-6.126l57.491-308.434c37.638,1.379,47.73,9.582,50.355,13.187
			c1.518,2.086,1.346,3.721,1.219,4.282c-1.396,2.766-0.798,5.824,1.307,8.128c2.14,2.342,5.669,2.771,8.594,1.541
			c34.836-14.66,50.13-33.598,50.764-34.396C434.62,136.768,435.111,134.234,434.417,131.891z M385.959,154.924
			c-0.495-1.191-1.132-2.415-1.944-3.655c-8.655-13.215-31.304-19.917-69.241-20.488c-3.685-0.029-6.816,2.532-7.486,6.125
			l-51.29,275.164l-51.29-275.164c-0.663-3.556-3.766-6.126-7.372-6.126c-0.038,0-0.076,0-0.114,0.001
			c-37.937,0.57-60.586,7.272-69.241,20.488c-0.812,1.24-1.449,2.464-1.944,3.655c-12.385-6.167-21.294-12.635-27.077-17.523
			c61.908-18.319,118.853-16.266,132.644-15.418l18.478,23.73c1.421,1.825,3.604,2.893,5.917,2.893c2.313,0,4.497-1.067,5.917-2.893
			l18.479-23.733c13.784-0.857,70.638-2.937,132.641,15.42C407.251,142.291,398.338,148.759,385.959,154.924z"/>
	</g>
</g>
<g>
	<g>
		<path d="M454.962,83.878c-0.764-1.907-2.276-3.417-4.185-4.178c-9.729-3.879-20.837-7.45-33.017-10.616
			c-4.008-1.042-8.104,1.363-9.146,5.372c-1.042,4.009,1.363,8.104,5.372,9.146c8.574,2.229,16.563,4.658,23.848,7.251
			l-5.195,11.345c-19.211-6.809-78.243-24.344-176.635-24.344c-98.398,0-157.436,17.536-176.645,24.345l-5.194-11.344
			c72.695-25.816,208.716-32.19,309.286-13.915c4.071,0.745,7.979-1.963,8.72-6.038c0.741-4.075-1.962-7.979-6.038-8.72
			c-50.581-9.192-111.695-12.623-172.085-9.664C151.806,55.57,97.531,65.223,61.222,79.7c-1.908,0.761-3.42,2.271-4.185,4.178
			c-0.764,1.907-0.712,4.044,0.143,5.911l11.466,25.041c1.694,3.698,6.036,5.366,9.777,3.771
			c0.602-0.258,61.533-25.747,177.581-25.747s176.969,25.489,177.563,25.743c0.966,0.416,1.972,0.613,2.963,0.613
			c2.847,0,5.564-1.631,6.823-4.38l11.466-25.041C455.674,87.922,455.726,85.785,454.962,83.878z"/>
	</g>
</g>
<g>
	<g>
		<path d="M504.5,480.5c-4.142,0-7.5,3.357-7.5,7.5v9H15V71.667c0-4.143-3.358-7.5-7.5-7.5S0,67.524,0,71.667V504.5
			c0,4.143,3.358,7.5,7.5,7.5h497c4.142,0,7.5-3.357,7.5-7.5V488C512,483.857,508.642,480.5,504.5,480.5z"/>
	</g>
</g>
<g>
	<g>
		<path d="M504.5,0H7.5C3.358,0,0,3.357,0,7.5v31.833c0,4.143,3.358,7.5,7.5,7.5s7.5-3.357,7.5-7.5V15h482v441.667
			c0,4.143,3.358,7.5,7.5,7.5c4.142,0,7.5-3.357,7.5-7.5V7.5C512,3.357,508.642,0,504.5,0z"/>
	</g>
</g>
<g>
</g>
<g>
</g>
<g>
</g>
<g>
</g>
<g>
</g>
<g>
</g>
<g>
</g>
<g>
</g>
<g>
</g>
<g>
</g>
<g>
</g>
<g>
</g>
<g>
</g>
<g>
</g>
<g>
</g>
</svg>
